<svg width="26" height="26" viewBox="0 0 26 26" fill="none" xmlns="http://www.w3.org/2000/svg">
<g clip-path="url(#clip0_7_402)">
<path d="M6.1343 26H18.9691C19.6325 26 20.1724 25.4626 20.1724 24.8023V1.64604C20.1724 0.985688 19.6325 0.448303 18.9691 0.448303H6.1343C5.4709 0.448303 4.93103 0.985688 4.93103 1.64604V24.8023C4.93103 25.4626 5.4709 26 6.1343 26ZM5.73321 1.64604C5.73321 1.54015 5.77547 1.4386 5.85068 1.36373C5.9259 1.28886 6.02792 1.24679 6.1343 1.24679H18.9691C19.0755 1.24679 19.1775 1.28886 19.2528 1.36373C19.328 1.4386 19.3702 1.54015 19.3702 1.64604V24.8023C19.3702 24.9082 19.328 25.0097 19.2528 25.0846C19.1775 25.1595 19.0755 25.2015 18.9691 25.2015H6.1343C6.02792 25.2015 5.9259 25.1595 5.85068 25.0846C5.77547 25.0097 5.73321 24.9082 5.73321 24.8023V1.64604Z" fill="white"/>
<path d="M6.93649 22.0075H18.167C18.2734 22.0075 18.3754 21.9655 18.4506 21.8906C18.5258 21.8157 18.5681 21.7142 18.5681 21.6083V4.83998C18.5681 4.73409 18.5258 4.63254 18.4506 4.55767C18.3754 4.4828 18.2734 4.44073 18.167 4.44073H6.93649C6.83011 4.44073 6.7281 4.4828 6.65288 4.55767C6.57766 4.63254 6.5354 4.73409 6.5354 4.83998V21.6083C6.5354 21.7142 6.57766 21.8157 6.65288 21.8906C6.7281 21.9655 6.83011 22.0075 6.93649 22.0075ZM7.33758 5.23923H17.7659V21.2091H7.33758V5.23923Z" fill="white"/>
<path d="M12.9528 24.403C13.3958 24.403 13.755 24.0455 13.755 23.6045C13.755 23.1635 13.3958 22.806 12.9528 22.806C12.5098 22.806 12.1506 23.1635 12.1506 23.6045C12.1506 24.0455 12.5098 24.403 12.9528 24.403Z" fill="white"/>
<path d="M10.9474 3.64224H14.1561C14.2624 3.64224 14.3645 3.60018 14.4397 3.5253C14.5149 3.45043 14.5572 3.34888 14.5572 3.243C14.5572 3.13711 14.5149 3.03556 14.4397 2.96069C14.3645 2.88581 14.2624 2.84375 14.1561 2.84375H10.9474C10.841 2.84375 10.739 2.88581 10.6637 2.96069C10.5885 3.03556 10.5463 3.13711 10.5463 3.243C10.5463 3.34888 10.5885 3.45043 10.6637 3.5253C10.739 3.60018 10.841 3.64224 10.9474 3.64224Z" fill="white"/>
</g>
<defs>
<clipPath id="clip0_7_402">
<rect width="15.2414" height="25.5517" fill="white" transform="translate(4.93103 0.448303)"/>
</clipPath>
</defs>
</svg>
