<svg width="42" height="48" viewBox="0 0 42 48" fill="none" xmlns="http://www.w3.org/2000/svg">
<path d="M21 6.08329C26.448 6.08329 31.6729 8.2475 35.5252 12.0998C39.3775 15.9521 41.5417 21.177 41.5417 26.625C41.5417 32.0729 39.3775 37.2978 35.5252 41.1501C31.6729 45.0024 26.448 47.1666 21 47.1666C15.552 47.1666 10.3272 45.0024 6.47486 41.1501C2.62255 37.2978 0.458344 32.0729 0.458344 26.625C0.458344 21.177 2.62255 15.9521 6.47486 12.0998C10.3272 8.2475 15.552 6.08329 21 6.08329V6.08329ZM21 9.70829C16.5134 9.70829 12.2106 11.4906 9.03812 14.6631C5.86563 17.8356 4.08334 22.1384 4.08334 26.625C4.08334 31.1115 5.86563 35.4144 9.03812 38.5868C12.2106 41.7593 16.5134 43.5416 21 43.5416C25.4866 43.5416 29.7894 41.7593 32.9619 38.5868C36.1344 35.4144 37.9167 31.1115 37.9167 26.625C37.9167 22.1384 36.1344 17.8356 32.9619 14.6631C29.7894 11.4906 25.4866 9.70829 21 9.70829V9.70829ZM21 13.3333C21.438 13.3333 21.8612 13.4919 22.1913 13.7798C22.5213 14.0677 22.736 14.4654 22.7956 14.8993L22.8125 15.1458V26.0208C22.8124 26.48 22.6379 26.9221 22.3244 27.2576C22.0109 27.5932 21.5817 27.7972 21.1236 27.8285C20.6654 27.8598 20.2124 27.716 19.8562 27.4262C19.5 27.1364 19.267 26.7222 19.2044 26.2673L19.1875 26.0208V15.1458C19.1875 14.6651 19.3785 14.2041 19.7184 13.8642C20.0583 13.5243 20.5193 13.3333 21 13.3333V13.3333ZM38.2719 6.35879L38.4725 6.50379L41.271 8.83346C41.6214 9.12816 41.8473 9.54456 41.9033 9.99899C41.9593 10.4534 41.8412 10.9122 41.5728 11.2831C41.3044 11.6541 40.9055 11.9097 40.4564 11.9986C40.0072 12.0875 39.5411 12.0031 39.1516 11.7625L38.9534 11.6175L36.1525 9.28779C35.8021 8.99309 35.5762 8.57669 35.5202 8.12226C35.4642 7.66784 35.5823 7.20906 35.8507 6.83812C36.1191 6.46719 36.518 6.21158 36.9671 6.12266C37.4163 6.03374 37.8824 6.1181 38.2719 6.35879V6.35879ZM26.4375 0.041626C26.8967 0.0417667 27.3388 0.216217 27.6743 0.529727C28.0099 0.843236 28.2139 1.27243 28.2452 1.73059C28.2765 2.18874 28.1328 2.6417 27.843 2.99793C27.5532 3.35416 27.1389 3.58711 26.684 3.64971L26.4375 3.66663H15.5625C15.1033 3.66649 14.6612 3.49204 14.3257 3.17853C13.9901 2.86502 13.7861 2.43582 13.7548 1.97767C13.7235 1.51951 13.8673 1.06655 14.1571 0.710321C14.4469 0.354087 14.8611 0.121138 15.316 0.0585426L15.5625 0.041626H26.4375Z" fill="white"/>
</svg>
