<svg width="65" height="65" viewBox="0 0 65 65" fill="none" xmlns="http://www.w3.org/2000/svg">
<g clip-path="url(#clip0_2_127)">
<path d="M17.875 16.25C17.444 16.25 17.0307 16.4212 16.726 16.726C16.4212 17.0307 16.25 17.444 16.25 17.875C16.25 18.306 16.4212 18.7193 16.726 19.024C17.0307 19.3288 17.444 19.5 17.875 19.5H47.125C47.556 19.5 47.9693 19.3288 48.274 19.024C48.5788 18.7193 48.75 18.306 48.75 17.875C48.75 17.444 48.5788 17.0307 48.274 16.726C47.9693 16.4212 47.556 16.25 47.125 16.25H17.875ZM21.125 35.75C22.4179 35.75 23.6579 35.2364 24.5721 34.3221C25.4864 33.4079 26 32.1679 26 30.875C26 29.5821 25.4864 28.3421 24.5721 27.4279C23.6579 26.5136 22.4179 26 21.125 26C19.8321 26 18.5921 26.5136 17.6779 27.4279C16.7636 28.3421 16.25 29.5821 16.25 30.875C16.25 32.1679 16.7636 33.4079 17.6779 34.3221C18.5921 35.2364 19.8321 35.75 21.125 35.75ZM21.125 32.5C20.694 32.5 20.2807 32.3288 19.976 32.024C19.6712 31.7193 19.5 31.306 19.5 30.875C19.5 30.444 19.6712 30.0307 19.976 29.726C20.2807 29.4212 20.694 29.25 21.125 29.25C21.556 29.25 21.9693 29.4212 22.274 29.726C22.5788 30.0307 22.75 30.444 22.75 30.875C22.75 31.306 22.5788 31.7193 22.274 32.024C21.9693 32.3288 21.556 32.5 21.125 32.5ZM26 43.875C26 45.1679 25.4864 46.4079 24.5721 47.3221C23.6579 48.2364 22.4179 48.75 21.125 48.75C19.8321 48.75 18.5921 48.2364 17.6779 47.3221C16.7636 46.4079 16.25 45.1679 16.25 43.875C16.25 42.5821 16.7636 41.3421 17.6779 40.4279C18.5921 39.5136 19.8321 39 21.125 39C22.4179 39 23.6579 39.5136 24.5721 40.4279C25.4864 41.3421 26 42.5821 26 43.875ZM22.75 43.875C22.75 43.444 22.5788 43.0307 22.274 42.726C21.9693 42.4212 21.556 42.25 21.125 42.25C20.694 42.25 20.2807 42.4212 19.976 42.726C19.6712 43.0307 19.5 43.444 19.5 43.875C19.5 44.306 19.6712 44.7193 19.976 45.024C20.2807 45.3288 20.694 45.5 21.125 45.5C21.556 45.5 21.9693 45.3288 22.274 45.024C22.5788 44.7193 22.75 44.306 22.75 43.875ZM29.25 30.875C29.25 30.444 29.4212 30.0307 29.726 29.726C30.0307 29.4212 30.444 29.25 30.875 29.25H47.125C47.556 29.25 47.9693 29.4212 48.274 29.726C48.5788 30.0307 48.75 30.444 48.75 30.875C48.75 31.306 48.5788 31.7193 48.274 32.024C47.9693 32.3288 47.556 32.5 47.125 32.5H30.875C30.444 32.5 30.0307 32.3288 29.726 32.024C29.4212 31.7193 29.25 31.306 29.25 30.875ZM30.875 42.25C30.444 42.25 30.0307 42.4212 29.726 42.726C29.4212 43.0307 29.25 43.444 29.25 43.875C29.25 44.306 29.4212 44.7193 29.726 45.024C30.0307 45.3288 30.444 45.5 30.875 45.5H47.125C47.556 45.5 47.9693 45.3288 48.274 45.024C48.5788 44.7193 48.75 44.306 48.75 43.875C48.75 43.444 48.5788 43.0307 48.274 42.726C47.9693 42.4212 47.556 42.25 47.125 42.25H30.875ZM19.5 9.75C16.9141 9.75 14.4342 10.7772 12.6057 12.6057C10.7772 14.4342 9.75 16.9141 9.75 19.5V45.5C9.75 48.0859 10.7772 50.5658 12.6057 52.3943C14.4342 54.2228 16.9141 55.25 19.5 55.25H45.5C48.0859 55.25 50.5658 54.2228 52.3943 52.3943C54.2228 50.5658 55.25 48.0859 55.25 45.5V19.5C55.25 16.9141 54.2228 14.4342 52.3943 12.6057C50.5658 10.7772 48.0859 9.75 45.5 9.75H19.5ZM13 19.5C13 17.7761 13.6848 16.1228 14.9038 14.9038C16.1228 13.6848 17.7761 13 19.5 13H45.5C47.2239 13 48.8772 13.6848 50.0962 14.9038C51.3152 16.1228 52 17.7761 52 19.5V45.5C52 47.2239 51.3152 48.8772 50.0962 50.0962C48.8772 51.3152 47.2239 52 45.5 52H19.5C17.7761 52 16.1228 51.3152 14.9038 50.0962C13.6848 48.8772 13 47.2239 13 45.5V19.5Z" fill="white"/>
</g>
<defs>
<clipPath id="clip0_2_127">
<rect width="65" height="65" fill="white"/>
</clipPath>
</defs>
</svg>
