<svg width="65" height="65" viewBox="0 0 65 65" fill="none" xmlns="http://www.w3.org/2000/svg">
<g clip-path="url(#clip0_7_417)">
<path d="M21.224 43H35.7857C36.4552 43 37 42.4472 37 41.7679V26.1607C37 26.1418 36.9919 26.1254 36.9895 26.1073C36.9872 26.0901 36.9837 26.0731 36.979 26.0564C36.9631 25.9864 36.929 25.922 36.8802 25.8699L31.2143 20.1208C31.1501 20.0592 31.0681 20.0203 30.9804 20.0099C30.9634 20.0082 30.9472 20 30.9286 20H21.2191C20.5472 20 20 20.5528 20 21.2321V41.7679C20 42.4472 20.5489 43 21.224 43ZM31.3333 21.4022L35.6181 25.75H31.7381C31.6307 25.75 31.5278 25.7067 31.4519 25.6297C31.376 25.5527 31.3333 25.4482 31.3333 25.3393V21.4022ZM20.8095 21.2321C20.8095 21.0054 20.9933 20.8214 21.2191 20.8214H30.5238V25.3393C30.5238 26.0186 31.0686 26.5714 31.7381 26.5714H36.1905V41.7679C36.1905 41.8768 36.1478 41.9813 36.0719 42.0583C35.996 42.1353 35.8931 42.1786 35.7857 42.1786H21.224C21.1702 42.1792 21.1168 42.1691 21.0669 42.1488C21.0169 42.1285 20.9714 42.0985 20.9329 42.0603C20.8944 42.0222 20.8637 41.9767 20.8426 41.9265C20.8214 41.8764 20.8102 41.8224 20.8095 41.7679V21.2321Z" fill="white"/>
<path d="M23.4231 30.1176H33.5769C33.6891 30.1176 33.7967 30.0743 33.8761 29.997C33.9554 29.9198 34 29.8151 34 29.7059C34 29.5967 33.9554 29.4919 33.8761 29.4147C33.7967 29.3375 33.6891 29.2941 33.5769 29.2941H23.4231C23.3109 29.2941 23.2033 29.3375 23.1239 29.4147C23.0446 29.4919 23 29.5967 23 29.7059C23 29.8151 23.0446 29.9198 23.1239 29.997C23.2033 30.0743 23.3109 30.1176 23.4231 30.1176ZM23.4231 33.4118H33.5769C33.6891 33.4118 33.7967 33.3684 33.8761 33.2912C33.9554 33.2139 34 33.1092 34 33C34 32.8908 33.9554 32.7861 33.8761 32.7088C33.7967 32.6316 33.6891 32.5882 33.5769 32.5882H23.4231C23.3109 32.5882 23.2033 32.6316 23.1239 32.7088C23.0446 32.7861 23 32.8908 23 33C23 33.1092 23.0446 33.2139 23.1239 33.2912C23.2033 33.3684 23.3109 33.4118 23.4231 33.4118ZM23.4231 26.8235H27.6538C27.7661 26.8235 27.8737 26.7801 27.953 26.7029C28.0323 26.6257 28.0769 26.521 28.0769 26.4118C28.0769 26.3026 28.0323 26.1978 27.953 26.1206C27.8737 26.0434 27.7661 26 27.6538 26H23.4231C23.3109 26 23.2033 26.0434 23.1239 26.1206C23.0446 26.1978 23 26.3026 23 26.4118C23 26.521 23.0446 26.6257 23.1239 26.7029C23.2033 26.7801 23.3109 26.8235 23.4231 26.8235ZM23.4231 36.7059H33.5769C33.6891 36.7059 33.7967 36.6625 33.8761 36.5853C33.9554 36.5081 34 36.4033 34 36.2941C34 36.1849 33.9554 36.0802 33.8761 36.003C33.7967 35.9257 33.6891 35.8824 33.5769 35.8824H23.4231C23.3109 35.8824 23.2033 35.9257 23.1239 36.003C23.0446 36.0802 23 36.1849 23 36.2941C23 36.4033 23.0446 36.5081 23.1239 36.5853C23.2033 36.6625 23.3109 36.7059 23.4231 36.7059ZM23.4231 40H33.5769C33.6891 40 33.7967 39.9566 33.8761 39.8794C33.9554 39.8022 34 39.6974 34 39.5882C34 39.479 33.9554 39.3743 33.8761 39.2971C33.7967 39.2199 33.6891 39.1765 33.5769 39.1765H23.4231C23.3109 39.1765 23.2033 39.2199 23.1239 39.2971C23.0446 39.3743 23 39.479 23 39.5882C23 39.6974 23.0446 39.8022 23.1239 39.8794C23.2033 39.9566 23.3109 40 23.4231 40Z" fill="white"/>
<path d="M37.881 23.8214H41.5238V28.3393C41.5238 29.0186 42.0686 29.5714 42.7381 29.5714H47.1905V44.7679C47.1905 44.8768 47.1478 44.9813 47.0719 45.0583C46.996 45.1353 46.8931 45.1786 46.7857 45.1786H32.224C32.1702 45.1792 32.1168 45.1691 32.0669 45.1488C32.0169 45.1285 31.9714 45.0985 31.9329 45.0603C31.8944 45.0222 31.8637 44.9767 31.8426 44.9265C31.8214 44.8764 31.8102 44.8224 31.8095 44.7679V43.9464C31.8095 43.8375 31.7669 43.733 31.691 43.656C31.6151 43.579 31.5121 43.5357 31.4048 43.5357C31.2974 43.5357 31.1945 43.579 31.1186 43.656C31.0426 43.733 31 43.8375 31 43.9464V44.7679C31 45.4472 31.5489 46 32.224 46H46.7857C47.4552 46 48 45.4472 48 44.7679V29.1607C48 29.1418 47.9919 29.1254 47.9895 29.1073C47.9872 29.0901 47.9837 29.0731 47.979 29.0564C47.9631 28.9864 47.929 28.922 47.8802 28.8699L42.2143 23.1207C42.1506 23.0587 42.0683 23.02 41.9804 23.0107C41.9634 23.0082 41.9472 23 41.9286 23H37.881C37.7736 23 37.6707 23.0433 37.5947 23.1203C37.5188 23.1973 37.4762 23.3018 37.4762 23.4107C37.4762 23.5196 37.5188 23.6241 37.5947 23.7011C37.6707 23.7782 37.7736 23.8214 37.881 23.8214ZM42.7381 28.75C42.6307 28.75 42.5278 28.7067 42.4519 28.6297C42.376 28.5527 42.3333 28.4482 42.3333 28.3393V24.4022L46.6181 28.75H42.7381Z" fill="white"/>
<path d="M39.3571 32.8462H43.6429C43.7376 32.8462 43.8284 32.8016 43.8954 32.7222C43.9624 32.6429 44 32.5353 44 32.4231C44 32.3109 43.9624 32.2033 43.8954 32.1239C43.8284 32.0446 43.7376 32 43.6429 32H39.3571C39.2624 32 39.1716 32.0446 39.1046 32.1239C39.0376 32.2033 39 32.3109 39 32.4231C39 32.5353 39.0376 32.6429 39.1046 32.7222C39.1716 32.8016 39.2624 32.8462 39.3571 32.8462ZM39.3571 36.2308H43.6429C43.7376 36.2308 43.8284 36.1862 43.8954 36.1069C43.9624 36.0275 44 35.9199 44 35.8077C44 35.6955 43.9624 35.5879 43.8954 35.5085C43.8284 35.4292 43.7376 35.3846 43.6429 35.3846H39.3571C39.2624 35.3846 39.1716 35.4292 39.1046 35.5085C39.0376 35.5879 39 35.6955 39 35.8077C39 35.9199 39.0376 36.0275 39.1046 36.1069C39.1716 36.1862 39.2624 36.2308 39.3571 36.2308ZM39.3571 39.6154H43.6429C43.7376 39.6154 43.8284 39.5708 43.8954 39.4915C43.9624 39.4121 44 39.3045 44 39.1923C44 39.0801 43.9624 38.9725 43.8954 38.8931C43.8284 38.8138 43.7376 38.7692 43.6429 38.7692H39.3571C39.2624 38.7692 39.1716 38.8138 39.1046 38.8931C39.0376 38.9725 39 39.0801 39 39.1923C39 39.3045 39.0376 39.4121 39.1046 39.4915C39.1716 39.5708 39.2624 39.6154 39.3571 39.6154ZM39.3571 43H43.6429C43.7376 43 43.8284 42.9554 43.8954 42.8761C43.9624 42.7967 44 42.6891 44 42.5769C44 42.4647 43.9624 42.3571 43.8954 42.2778C43.8284 42.1984 43.7376 42.1538 43.6429 42.1538H39.3571C39.2624 42.1538 39.1716 42.1984 39.1046 42.2778C39.0376 42.3571 39 42.4647 39 42.5769C39 42.6891 39.0376 42.7967 39.1046 42.8761C39.1716 42.9554 39.2624 43 39.3571 43Z" fill="white"/>
</g>
<defs>
<clipPath id="clip0_7_417">
<rect width="65" height="65" fill="white"/>
</clipPath>
</defs>
</svg>
