<svg width="47" height="47" viewBox="0 0 47 47" fill="none" xmlns="http://www.w3.org/2000/svg">
<g clip-path="url(#clip0_2_129)">
<path d="M39.9529 6.83277C37.7982 4.65807 35.2322 2.93396 32.4044 1.7609C29.5767 0.587838 26.5438 -0.0107051 23.4824 0.000144908C10.6543 0.000144908 0.19975 10.4518 0.188 23.2828C0.188 27.3923 1.26313 31.3903 3.29294 34.93L0 47.0001L12.3492 43.763C15.7656 45.6222 19.5929 46.5967 23.4824 46.5977H23.4941C36.3251 46.5977 46.7767 36.1461 46.7885 23.3033C46.7914 20.2426 46.1887 17.2115 45.015 14.3847C43.8414 11.5579 42.12 8.99134 39.95 6.83277H39.9529ZM23.4824 42.6556C20.0132 42.6567 16.6077 41.7232 13.6241 39.9531L12.9191 39.5301L5.593 41.4512L7.54937 34.3043L7.09112 33.567C5.15181 30.4835 4.12615 26.9136 4.13306 23.271C4.13306 12.6196 12.8192 3.93052 23.4941 3.93052C26.0372 3.92596 28.5561 4.42483 30.9055 5.39836C33.2549 6.3719 35.3884 7.80085 37.1829 9.60283C38.9837 11.3978 40.4112 13.5315 41.3833 15.8809C42.3553 18.2304 42.8526 20.749 42.8464 23.2916C42.8346 33.9811 34.1484 42.6556 23.4824 42.6556ZM34.1014 28.162C33.5227 27.8711 30.6646 26.4641 30.127 26.2643C29.5924 26.0734 29.2017 25.9735 28.8198 26.5551C28.4291 27.1338 27.3129 28.4528 26.978 28.8317C26.6431 29.2224 26.2965 29.2665 25.7149 28.9786C25.1362 28.6848 23.2591 28.0738 21.0384 26.0851C19.3052 24.543 18.1449 22.6336 17.7983 22.0549C17.4634 21.4733 17.766 21.1619 18.0568 20.8711C18.3124 20.6126 18.6355 20.1896 18.9263 19.8547C19.2201 19.5198 19.317 19.2731 19.5079 18.8853C19.6989 18.4917 19.6078 18.1568 19.4639 17.866C19.317 17.5752 18.1567 14.7053 17.6661 13.5479C17.1961 12.4052 16.7173 12.5638 16.3589 12.5491C16.0241 12.5286 15.6334 12.5286 15.2427 12.5286C14.9477 12.5359 14.6573 12.6042 14.3899 12.729C14.1225 12.8539 13.8838 13.0327 13.6887 13.2541C13.1541 13.8358 11.6589 15.2428 11.6589 18.1128C11.6589 20.9827 13.7446 23.741 14.0383 24.1317C14.3262 24.5224 18.1332 30.3945 23.9759 32.9207C25.3565 33.5229 26.4434 33.8783 27.2923 34.1486C28.6876 34.5951 29.9478 34.5275 30.9524 34.3836C32.0687 34.2132 34.3922 32.9736 34.8828 31.6135C35.3646 30.2505 35.3646 29.0873 35.2177 28.8435C35.0737 28.5967 34.6831 28.4528 34.1014 28.162Z" fill="white"/>
</g>
<defs>
<clipPath id="clip0_2_129">
<rect width="47" height="47" fill="white"/>
</clipPath>
</defs>
</svg>
